# Made in Blockbench 4.11.2
mtllib LeftLeg.mtl

o LeftLeg
v 0.03125 0.8524822165866424 -0.14887055784307188
v 0.03125 0.8633352276908257 -0.21042104240633488
v -0.03125 0.8524822165866424 -0.14887055784307188
v -0.03125 0.8633352276908257 -0.21042104240633488
v 0.03125 -0.13232553642556558 -0.3225187355100022
v 0.03125 -0.12147252532138242 -0.3840692200732652
v -0.03125 -0.13232553642556558 -0.3225187355100022
v -0.03125 -0.12147252532138242 -0.3840692200732652
v -0.0625 -0.033844761124344674 -0.30515391774330913
v -0.0625 0.7540014412854219 -0.16623537560976484
v -0.0625 -0.022991750020161544 -0.36670440230657214
v -0.0625 0.7648544523896053 -0.22778586017302785
v 0.0625 -0.033844761124344674 -0.30515391774330913
v 0.0625 0.7540014412854219 -0.16623537560976484
v 0.0625 -0.022991750020161544 -0.36670440230657214
v 0.0625 0.7648544523896053 -0.22778586017302785
v 0.03125 -0.01756524446806995 -0.3974796445882037
v 0.03125 0.7702809579416967 -0.25856110245465935
v -0.03125 -0.01756524446806995 -0.3974796445882037
v -0.03125 0.7702809579416967 -0.25856110245465935
v 0.03125 -0.03927126667643627 -0.27437867546167766
v 0.03125 0.7485749357333304 -0.13546013332813334
v -0.03125 -0.03927126667643627 -0.27437867546167766
v -0.03125 0.7485749357333304 -0.13546013332813334
vt 0.25 1
vt 0 1
vt 0 0
vt 0.25 0
vt 0.25 0
vt 0.25 1
vt 0 1
vt 0 0
vt 0.25 0.75
vt 0.25 1
vt 0 1
vt 0 0.75
vt 0 0.75
vt 0.25 0.75
vt 0.25 1
vt 0 1
vt 0.25 0
vt 0.25 1
vt 0 1
vt 0 0
vt 0.25 1
vt 0 1
vt 0 0
vt 0.25 0
vt 0.25 1
vt 0 1
vt 0 0.823225
vt 0.25 0.823225
vt 0.25 0.823225
vt 0.25 1
vt 0 1
vt 0 0.823225
vt 0.25 0.823225
vt 0.25 1
vt 0 1
vt 0 0.823225
vt 0.25 1
vt 0 1
vt 0 0.823225
vt 0.25 0.823225
vt 0 1
vt 0 0.823225
vt 0.25 0.823225
vt 0.25 1
vt 0 0.823225
vt 0.25 0.823225
vt 0.25 1
vt 0 1
vt 0 0.823225
vt 0.25 0.823225
vt 0.25 1
vt 0 1
vt 0 1
vt 0 0.823225
vt 0.25 0.823225
vt 0.25 1
vt 0 0
vt 0.176775 0
vt 0.176775 1
vt 0 1
vt 0 1
vt 0 0
vt 0.176775 0
vt 0.176775 1
vt 0 1
vt 0 0
vt 0.176775 0
vt 0.176775 1
vt 0 0
vt 0.176775 0
vt 0.176775 1
vt 0 1
vt 0.0883875 0.84690625
vt 0.176775 1
vt 0 1
vt 0.0883875 0.84690625
vt 0.176775 1
vt 0 1
vt 0.0883875 0.84690625
vt 0.176775 1
vt 0 1
vt 0.0883875 0.84690625
vt 0.176775 1
vt 0 1
vt 0.0883875 1
vt 0 0.8469062500000001
vt 0.176775 0.8469062500000001
vt 0.0883875 1
vt 0 0.8469062500000001
vt 0.176775 0.8469062500000001
vt 0.0883875 1
vt 0 0.8469062500000001
vt 0.176775 0.8469062500000001
vt 0.0883875 1
vt 0 0.8469062500000001
vt 0.176775 0.8469062500000001
vn 1 0 0
vn -1 0 0
vn 0 0.984807753012208 0.17364817766693033
vn 0 -0.984807753012208 -0.17364817766693033
vn 0 -0.17364817766693033 0.984807753012208
vn 0 0.17364817766693033 -0.984807753012208
vn 0.9544799780350295 0.29374352576994456 0.05179490900167349
vn -0.9544799780350295 0.29374352576994456 0.05179490900167349
vn 0 0.12799981696458995 0.9917741914654925
vn 0 0.45948723457529905 -0.8881843734621455
vn 0.9544799780350299 -0.2937435257699434 -0.05179490900167329
vn -0.9544799780350299 -0.2937435257699434 -0.05179490900167329
vn 0 -0.45948723457529794 0.8881843734621462
vn 0 -0.1279998169645887 -0.9917741914654927
vn 0.7071067811865475 0.12278780396897285 -0.696364240320019
vn 0.7071067811865475 -0.12278780396897285 0.696364240320019
vn -0.7071067811865475 0.12278780396897285 -0.696364240320019
vn -0.7071067811865475 -0.12278780396897285 0.696364240320019
vn 0.6904509632033649 -0.33238350829033486 0.6424941017847203
vn -0.6904509632033649 -0.33238350829033486 0.6424941017847203
vn 0.6904509632033649 -0.09259240523305268 -0.717428821490121
vn -0.6904509632033649 -0.09259240523305268 -0.717428821490121
vn 0.6904509632033647 0.09259240523305358 0.717428821490121
vn -0.6904509632033647 0.09259240523305358 0.717428821490121
vn 0.6904509632033647 0.33238350829033575 -0.6424941017847201
vn -0.6904509632033647 0.33238350829033575 -0.6424941017847201
usemtl none
f 16/1/1 14/2/1 13/3/1 15/4/1
f 9/5/2 10/6/2 12/7/2 11/8/2
f 1/9/3 2/10/3 4/11/3 3/12/3
f 8/13/4 6/14/4 5/15/4 7/16/4
f 21/17/5 22/18/5 24/19/5 23/20/5
f 20/21/6 18/22/6 17/23/6 19/24/6
f 2/25/7 1/26/7 14/27/7 16/28/7
f 10/29/8 3/30/8 4/31/8 12/32/8
f 22/33/9 1/34/9 3/35/9 24/36/9
f 4/37/10 2/38/10 18/39/10 20/40/10
f 13/41/11 5/42/11 6/43/11 15/44/11
f 8/45/12 7/46/12 9/47/12 11/48/12
f 7/49/13 5/50/13 21/51/13 23/52/13
f 17/53/14 6/54/14 8/55/14 19/56/14
f 15/57/15 17/58/15 18/59/15 16/60/15
f 22/61/16 21/62/16 13/63/16 14/64/16
f 20/65/17 19/66/17 11/67/17 12/68/17
f 9/69/18 23/70/18 24/71/18 10/72/18
f 5/73/19 13/74/19 21/75/19
f 7/76/20 23/77/20 9/78/20
f 6/79/21 17/80/21 15/81/21
f 8/82/22 11/83/22 19/84/22
f 1/85/23 22/86/23 14/87/23
f 3/88/24 10/89/24 24/90/24
f 2/91/25 16/92/25 18/93/25
f 4/94/26 20/95/26 12/96/26
o LeftLeg
v 0.03125 -0.125 -0.328125
v 0.03125 -0.125 -0.390625
v -0.03125 -0.125 -0.328125
v -0.03125 -0.125 -0.390625
v 0.03125 -1.125 -0.328125
v 0.03125 -1.125 -0.390625
v -0.03125 -1.125 -0.328125
v -0.03125 -1.125 -0.390625
v -0.0625 -1.025 -0.328125
v -0.0625 -0.22499999999999964 -0.328125
v -0.0625 -1.025 -0.390625
v -0.0625 -0.22499999999999964 -0.390625
v 0.0625 -1.025 -0.328125
v 0.0625 -0.22499999999999964 -0.328125
v 0.0625 -1.025 -0.390625
v 0.0625 -0.22499999999999964 -0.390625
v 0.03125 -1.025 -0.421875
v 0.03125 -0.22499999999999964 -0.421875
v -0.03125 -1.025 -0.421875
v -0.03125 -0.22499999999999964 -0.421875
v 0.03125 -1.025 -0.296875
v 0.03125 -0.22499999999999964 -0.296875
v -0.03125 -1.025 -0.296875
v -0.03125 -0.22499999999999964 -0.296875
vt 0.25 1
vt 0 1
vt 0 0
vt 0.25 0
vt 0.25 0
vt 0.25 1
vt 0 1
vt 0 0
vt 0.25 0.75
vt 0.25 1
vt 0 1
vt 0 0.75
vt 0 0.75
vt 0.25 0.75
vt 0.25 1
vt 0 1
vt 0.25 0
vt 0.25 1
vt 0 1
vt 0 0
vt 0.25 1
vt 0 1
vt 0 0
vt 0.25 0
vt 0.25 1
vt 0 1
vt 0 0.823225
vt 0.25 0.823225
vt 0.25 0.823225
vt 0.25 1
vt 0 1
vt 0 0.823225
vt 0.25 0.823225
vt 0.25 1
vt 0 1
vt 0 0.823225
vt 0.25 1
vt 0 1
vt 0 0.823225
vt 0.25 0.823225
vt 0 1
vt 0 0.823225
vt 0.25 0.823225
vt 0.25 1
vt 0 0.823225
vt 0.25 0.823225
vt 0.25 1
vt 0 1
vt 0 0.823225
vt 0.25 0.823225
vt 0.25 1
vt 0 1
vt 0 1
vt 0 0.823225
vt 0.25 0.823225
vt 0.25 1
vt 0 0
vt 0.176775 0
vt 0.176775 1
vt 0 1
vt 0 1
vt 0 0
vt 0.176775 0
vt 0.176775 1
vt 0 1
vt 0 0
vt 0.176775 0
vt 0.176775 1
vt 0 0
vt 0.176775 0
vt 0.176775 1
vt 0 1
vt 0.0883875 0.84690625
vt 0.176775 1
vt 0 1
vt 0.0883875 0.84690625
vt 0.176775 1
vt 0 1
vt 0.0883875 0.84690625
vt 0.176775 1
vt 0 1
vt 0.0883875 0.84690625
vt 0.176775 1
vt 0 1
vt 0.0883875 1
vt 0 0.8469062500000001
vt 0.176775 0.8469062500000001
vt 0.0883875 1
vt 0 0.8469062500000001
vt 0.176775 0.8469062500000001
vt 0.0883875 1
vt 0 0.8469062500000001
vt 0.176775 0.8469062500000001
vt 0.0883875 1
vt 0 0.8469062500000001
vt 0.176775 0.8469062500000001
vn 1 0 0
vn -1 0 0
vn 0 1 0
vn 0 -1 0
vn 0 0 1
vn 0 0 -1
vn 0.9544799780350295 0.29827499313594774 0
vn -0.9544799780350295 0.29827499313594774 0
vn 0 0.29827499313594774 0.9544799780350295
vn 0 0.29827499313594774 -0.9544799780350295
vn 0.9544799780350299 -0.2982749931359466 0
vn -0.9544799780350299 -0.2982749931359466 0
vn 0 -0.2982749931359466 0.9544799780350299
vn 0 -0.2982749931359466 -0.9544799780350299
vn 0.7071067811865476 0 -0.7071067811865476
vn 0.7071067811865476 0 0.7071067811865476
vn -0.7071067811865476 0 -0.7071067811865476
vn -0.7071067811865476 0 0.7071067811865476
vn 0.690450963203365 -0.2157659260010514 0.690450963203365
vn -0.690450963203365 -0.2157659260010514 0.690450963203365
vn 0.690450963203365 -0.2157659260010514 -0.690450963203365
vn -0.690450963203365 -0.2157659260010514 -0.690450963203365
vn 0.6904509632033649 0.2157659260010523 0.6904509632033649
vn -0.6904509632033649 0.2157659260010523 0.6904509632033649
vn 0.6904509632033649 0.2157659260010523 -0.6904509632033649
vn -0.6904509632033649 0.2157659260010523 -0.6904509632033649
usemtl none
f 40/97/27 38/98/27 37/99/27 39/100/27
f 33/101/28 34/102/28 36/103/28 35/104/28
f 25/105/29 26/106/29 28/107/29 27/108/29
f 32/109/30 30/110/30 29/111/30 31/112/30
f 45/113/31 46/114/31 48/115/31 47/116/31
f 44/117/32 42/118/32 41/119/32 43/120/32
f 26/121/33 25/122/33 38/123/33 40/124/33
f 34/125/34 27/126/34 28/127/34 36/128/34
f 46/129/35 25/130/35 27/131/35 48/132/35
f 28/133/36 26/134/36 42/135/36 44/136/36
f 37/137/37 29/138/37 30/139/37 39/140/37
f 32/141/38 31/142/38 33/143/38 35/144/38
f 31/145/39 29/146/39 45/147/39 47/148/39
f 41/149/40 30/150/40 32/151/40 43/152/40
f 39/153/41 41/154/41 42/155/41 40/156/41
f 46/157/42 45/158/42 37/159/42 38/160/42
f 44/161/43 43/162/43 35/163/43 36/164/43
f 33/165/44 47/166/44 48/167/44 34/168/44
f 29/169/45 37/170/45 45/171/45
f 31/172/46 47/173/46 33/174/46
f 30/175/47 41/176/47 39/177/47
f 32/178/48 35/179/48 43/180/48
f 25/181/49 46/182/49 38/183/49
f 27/184/50 34/185/50 48/186/50
f 26/187/51 40/188/51 42/189/51
f 28/190/52 44/191/52 36/192/52